<svg xmlns="http://www.w3.org/2000/svg" width="14.738" height="13.213" viewBox="0 0 14.738 13.213">
  <g id="coins" transform="translate(0 -3)">
    <path id="XMLID_148_" d="M9.606,43.525C5.958,43.525,3,42.772,3,42v1.778C3,44.549,5.959,45.3,9.606,45.3s6.6-.754,6.607-1.526V42c0,.772-2.958,1.525-6.607,1.525" transform="translate(-2.238 -29.09)" fill="#e4af18"/>
    <path id="XMLID_147_" d="M6.607,32.525C2.958,32.525,0,31.772,0,31v1.778C0,33.549,2.959,34.3,6.607,34.3s6.6-.754,6.607-1.526V31c0,.772-2.958,1.525-6.607,1.525" transform="translate(0 -20.885)" fill="#f4bf1a"/>
    <path id="XMLID_146_" d="M12.606,21.525C8.958,21.525,6,20.772,6,20v1.778c0,.771,2.959,1.526,6.607,1.526s6.6-.754,6.606-1.526V20c0,.772-2.958,1.525-6.606,1.525" transform="translate(-4.475 -12.68)" fill="#e4af18"/>
    <path id="XMLID_145_" d="M13.213,4.3c0,.772-2.958,1.492-6.607,1.492S0,5.075,0,4.3,2.958,3,6.607,3s6.607.532,6.607,1.3" transform="translate(0 0)" fill="#ffd949"/>
    <path id="XMLID_144_" d="M6.607,9.525C2.958,9.525,0,8.772,0,8V9.778C0,10.549,2.959,11.3,6.607,11.3s6.6-.754,6.607-1.526V8c0,.772-2.958,1.525-6.607,1.525" transform="translate(0 -3.73)" fill="#f4bf1a"/>
    <path id="XMLID_143_" d="M4,11.074v1.777q.232.085.508.164V11.238q-.277-.079-.508-.164" transform="translate(-2.984 -6.022)" fill="#dca815"/>
    <path id="XMLID_142_" d="M46,11.238v1.778q.277-.079.508-.164V11.074q-.232.085-.508.164" transform="translate(-34.312 -6.022)" fill="#dca815"/>
    <path id="XMLID_141_" d="M9,12.445v1.778q.244.051.508.1V12.541q-.264-.045-.508-.1" transform="translate(-6.713 -7.045)" fill="#dca815"/>
    <path id="XMLID_140_" d="M41,12.541v1.778q.264-.046.508-.1V12.445q-.244.051-.508.1" transform="translate(-30.582 -7.045)" fill="#dca815"/>
    <path id="XMLID_139_" d="M14,13.269v1.778c.166.021.335.041.508.059V13.328c-.174-.018-.343-.038-.508-.059" transform="translate(-10.443 -7.66)" fill="#dca815"/>
    <path id="XMLID_138_" d="M36,13.328v1.778c.174-.018.343-.038.508-.059V13.269c-.166.022-.335.041-.508.059" transform="translate(-26.853 -7.66)" fill="#dca815"/>
    <path id="XMLID_137_" d="M19,13.759v1.778q.25.018.508.03V13.789q-.258-.013-.508-.03" transform="translate(-14.172 -8.025)" fill="#dca815"/>
    <path id="XMLID_136_" d="M31,13.789v1.779q.258-.013.508-.03V13.759q-.25.018-.508.03" transform="translate(-23.123 -8.025)" fill="#dca815"/>
    <path id="XMLID_135_" d="M25.254,14l-.254,0v1.779l.254,0,.254,0V13.994l-.254,0" transform="translate(-18.648 -8.2)" fill="#dca815"/>
    <path id="XMLID_134_" d="M10,23.074v1.777q.232.085.508.164V23.238q-.277-.079-.508-.164" transform="translate(-7.459 -14.973)" fill="#c49214"/>
    <path id="XMLID_133_" d="M52,23.238v1.778q.277-.079.508-.164V23.074q-.232.085-.508.164" transform="translate(-38.787 -14.973)" fill="#c49214"/>
    <path id="XMLID_132_" d="M15,24.445v1.778q.244.051.508.1V24.541q-.264-.045-.508-.1" transform="translate(-11.189 -15.996)" fill="#c49214"/>
    <path id="XMLID_131_" d="M47,24.541v1.778q.264-.046.508-.1V24.445q-.244.051-.508.1" transform="translate(-35.057 -15.996)" fill="#c49214"/>
    <path id="XMLID_130_" d="M20,25.27v1.778c.166.021.335.041.508.059V25.329c-.174-.018-.343-.038-.508-.059" transform="translate(-14.918 -16.611)" fill="#c49214"/>
    <path id="XMLID_129_" d="M42,25.329v1.778c.174-.018.343-.038.508-.059V25.27c-.166.021-.335.041-.508.059" transform="translate(-31.328 -16.611)" fill="#c49214"/>
    <path id="XMLID_128_" d="M25,25.759v1.778q.25.018.508.03V25.789q-.258-.013-.508-.03" transform="translate(-18.648 -16.976)" fill="#c49214"/>
    <path id="XMLID_127_" d="M37,25.789v1.779q.258-.013.508-.03V25.759q-.25.018-.508.03" transform="translate(-27.598 -16.976)" fill="#c49214"/>
    <path id="XMLID_126_" d="M31.254,26l-.254,0v1.779l.254,0,.254,0V25.994l-.254,0" transform="translate(-23.123 -17.151)" fill="#c49214"/>
    <path id="XMLID_125_" d="M4,34.074v1.777q.232.085.508.164V34.238q-.277-.079-.508-.164" transform="translate(-2.984 -23.178)" fill="#dca815"/>
    <path id="XMLID_124_" d="M46,34.238v1.778q.277-.079.508-.164V34.074q-.232.085-.508.164" transform="translate(-34.312 -23.178)" fill="#dca815"/>
    <path id="XMLID_123_" d="M9,35.445v1.778q.244.051.508.1V35.541q-.264-.045-.508-.1" transform="translate(-6.713 -24.201)" fill="#dca815"/>
    <path id="XMLID_122_" d="M41,35.541v1.778q.264-.046.508-.1V35.445q-.244.051-.508.1" transform="translate(-30.582 -24.201)" fill="#dca815"/>
    <path id="XMLID_121_" d="M14,36.27v1.778c.166.021.335.041.508.059V36.329c-.174-.018-.343-.038-.508-.059" transform="translate(-10.443 -24.816)" fill="#dca815"/>
    <path id="XMLID_120_" d="M36,36.329v1.778c.174-.018.343-.038.508-.059V36.27c-.166.021-.335.041-.508.059" transform="translate(-26.853 -24.816)" fill="#dca815"/>
    <path id="XMLID_119_" d="M19,36.759v1.778q.25.018.508.03V36.789q-.258-.013-.508-.03" transform="translate(-14.172 -25.181)" fill="#dca815"/>
    <path id="XMLID_118_" d="M31,36.789v1.779q.258-.013.508-.03V36.759q-.25.018-.508.03" transform="translate(-23.123 -25.181)" fill="#dca815"/>
    <path id="XMLID_117_" d="M25.254,37l-.254,0v1.779l.254,0,.254,0V36.994l-.254,0" transform="translate(-18.648 -25.356)" fill="#dca815"/>
    <path id="XMLID_116_" d="M7,45.074v1.777q.232.085.508.164V45.238q-.277-.079-.508-.164" transform="translate(-5.221 -31.383)" fill="#c49214"/>
    <path id="XMLID_115_" d="M49,45.238v1.778q.277-.079.508-.164V45.074q-.232.085-.508.164" transform="translate(-36.549 -31.383)" fill="#c49214"/>
    <path id="XMLID_114_" d="M12,46.445v1.778q.244.051.508.1V46.541q-.264-.045-.508-.1" transform="translate(-8.951 -32.406)" fill="#c49214"/>
    <path id="XMLID_113_" d="M44,46.541v1.778q.264-.046.508-.1V46.445q-.244.051-.508.1" transform="translate(-32.82 -32.406)" fill="#c49214"/>
    <path id="XMLID_112_" d="M17,47.27v1.778c.166.021.335.041.508.059V47.329c-.174-.018-.343-.038-.508-.059" transform="translate(-12.68 -33.021)" fill="#c49214"/>
    <path id="XMLID_111_" d="M39,47.329v1.778c.174-.018.343-.038.508-.059V47.27c-.166.021-.335.041-.508.059" transform="translate(-29.09 -33.021)" fill="#c49214"/>
    <path id="XMLID_110_" d="M22,47.759v1.778q.25.018.508.03V47.789q-.258-.013-.508-.03" transform="translate(-16.41 -33.386)" fill="#c49214"/>
    <path id="XMLID_109_" d="M34,47.789v1.779q.258-.013.508-.03V47.759q-.25.018-.508.03" transform="translate(-25.361 -33.386)" fill="#c49214"/>
    <path id="XMLID_108_" d="M28.254,48l-.254,0v1.779l.254,0,.254,0V47.994l-.254,0" transform="translate(-20.885 -33.561)" fill="#c49214"/>
    <path id="XMLID_107_" d="M15.25,39.372c-.722.635-3.316,1.176-6.406,1.176a17.5,17.5,0,0,1-5.681-.779.42.42,0,0,0-.164.3c0,.772,2.958,1.492,6.607,1.492s6.607-.72,6.607-1.492c0-.266-.352-.5-.963-.7" transform="translate(-2.238 -27.13)" fill="#fcc62d"/>
    <path id="XMLID_106_" d="M8.131,29.059c-3.357,0-6.128-.639-6.549-1.342C.6,27.94,0,28.238,0,28.584c0,.772,2.958,1.492,6.607,1.492s6.607-.72,6.607-1.492a.307.307,0,0,0-.019-.1,19.873,19.873,0,0,1-5.063.576" transform="translate(0 -18.436)" fill="#ffd949"/>
    <path id="XMLID_105_" d="M17.433,16.549c-.79.615-3.333,1.131-6.351,1.131a20.357,20.357,0,0,1-4.909-.534A.429.429,0,0,0,6,17.459c0,.772,2.958,1.492,6.607,1.492s6.606-.72,6.606-1.492c0-.369-.677-.683-1.78-.91" transform="translate(-4.475 -10.106)" fill="#fcc62d"/>
  </g>
</svg>
