<svg xmlns="http://www.w3.org/2000/svg" width="13.738" height="13.987" viewBox="0 0 13.738 13.987">
  <g id="coin" transform="translate(-0.5)">
    <path id="XMLID_99_" d="M12.619,13.987c-3.38,0-6.119-3.131-6.119-6.994S9.24,0,12.619,0s6.119,3.131,6.119,6.994S16,13.987,12.619,13.987" transform="translate(-4.501)" fill="#ffd949"/>
    <path id="XMLID_132_" d="M2,6.994C2,3.421,4.343.477,7.369.054A5.427,5.427,0,0,0,6.619,0C3.24,0,.5,3.131.5,6.994s2.74,6.994,6.119,6.994a5.427,5.427,0,0,0,.749-.054C4.343,13.511,2,10.566,2,6.994" transform="translate(0 0)" fill="#f4bf1a"/>
    <path id="XMLID_115_" d="M16.141,16.728H16.12A4.451,4.451,0,0,1,15.6,16.7a.25.25,0,1,1,.059-.5,3.933,3.933,0,0,0,.464.027.259.259,0,0,1,.261.25.241.241,0,0,1-.239.25m1.452-.269a.25.25,0,0,1-.088-.484,4.107,4.107,0,0,0,.426-.189.25.25,0,1,1,.228.444,4.642,4.642,0,0,1-.478.212.246.246,0,0,1-.088.016m-3.381-.191a.248.248,0,0,1-.113-.027,4.762,4.762,0,0,1-.452-.262.25.25,0,1,1,.274-.418,4.229,4.229,0,0,0,.4.234.25.25,0,0,1-.113.473m5.023-.889a.25.25,0,0,1-.177-.426,4.7,4.7,0,0,0,.314-.35.25.25,0,1,1,.388.315c-.11.135-.227.266-.347.387a.25.25,0,0,1-.177.074m-6.549-.352a.25.25,0,0,1-.193-.091c-.108-.132-.213-.272-.309-.416a.25.25,0,1,1,.414-.279c.088.131.183.258.281.378a.25.25,0,0,1-.193.408m7.647-1.283a.25.25,0,0,1-.229-.35c.063-.143.12-.292.17-.442a.25.25,0,0,1,.474.159c-.055.163-.117.325-.186.482a.251.251,0,0,1-.229.15m-8.6-.441a.251.251,0,0,1-.237-.169c-.055-.162-.1-.328-.146-.5a.25.25,0,0,1,.485-.121c.038.153.083.306.134.455a.25.25,0,0,1-.156.317.246.246,0,0,1-.081.014m9.071-1.473h-.019a.25.25,0,0,1-.23-.269c.012-.151.018-.306.018-.459a.257.257,0,0,1,.25-.258.243.243,0,0,1,.25.242V11.1c0,.166-.006.333-.019.5a.25.25,0,0,1-.249.231m-9.39-.476a.248.248,0,0,1-.25-.247V11.1c0-.17.007-.342.02-.509a.25.25,0,1,1,.5.039c-.012.154-.018.312-.018.469a.252.252,0,0,1-.25.253m9.226-1.489a.25.25,0,0,1-.242-.189c-.039-.154-.084-.306-.135-.455a.25.25,0,0,1,.473-.162c.055.161.1.328.147.494a.25.25,0,0,1-.181.3.233.233,0,0,1-.061.008m-8.909-.454a.25.25,0,0,1-.237-.33c.055-.162.118-.324.187-.482a.25.25,0,1,1,.458.2c-.063.144-.121.293-.171.442a.25.25,0,0,1-.237.17m8.11-1.347a.249.249,0,0,1-.207-.11c-.088-.13-.183-.258-.282-.378a.25.25,0,0,1,.386-.318c.109.132.213.272.31.415a.25.25,0,0,1-.207.39m-7.162-.38a.25.25,0,0,1-.193-.408c.11-.135.227-.265.347-.386a.25.25,0,0,1,.354.352c-.109.11-.215.227-.315.35a.248.248,0,0,1-.194.092m5.765-1.007a.247.247,0,0,1-.136-.04A4.248,4.248,0,0,0,17.9,6.4a.25.25,0,0,1,.225-.446,4.688,4.688,0,0,1,.452.261.25.25,0,0,1-.137.459M14.2,6.44a.25.25,0,0,1-.114-.472,4.617,4.617,0,0,1,.479-.211.25.25,0,1,1,.175.468,4.087,4.087,0,0,0-.427.188.247.247,0,0,1-.113.027M16.6,6l-.029,0a3.949,3.949,0,0,0-.454-.026.254.254,0,0,1-.255-.25.245.245,0,0,1,.245-.25h.01a4.442,4.442,0,0,1,.512.03A.25.25,0,0,1,16.6,6" transform="translate(-8.002 -4.108)" fill="#f4bf1a"/>
    <path id="XMLID_114_" d="M2,29H.5c0,.168.014.335.03.5h1.5Q2.006,29.252,2,29" transform="translate(0 -21.757)" fill="#dca815"/>
    <path id="XMLID_113_" d="M2.091,24H.593c-.021.165-.036.331-.046.5h1.5c.01-.168.024-.335.045-.5" transform="translate(-0.035 -18.005)" fill="#dca815"/>
    <path id="XMLID_112_" d="M2.546,34h-1.5q.049.253.113.5h1.5q-.064-.246-.112-.5" transform="translate(-0.41 -25.508)" fill="#dca815"/>
    <path id="XMLID_111_" d="M3.943,39h-1.5c.064.17.134.336.209.5h1.5q-.112-.244-.208-.5" transform="translate(-1.458 -29.259)" fill="#dca815"/>
    <path id="XMLID_110_" d="M2.879,19h-1.5c-.049.164-.094.33-.132.5h1.5c.038-.169.08-.336.129-.5" transform="translate(-0.563 -14.254)" fill="#dca815"/>
    <path id="XMLID_109_" d="M4.569,14H3.07c-.082.163-.16.329-.231.5h1.5q.106-.256.23-.5" transform="translate(-1.755 -10.503)" fill="#dca815"/>
    <path id="XMLID_108_" d="M8.122,8h-1.5q-.213.238-.405.5h1.5q.192-.261.406-.5" transform="translate(-4.288 -6.002)" fill="#dca815"/>
    <path id="XMLID_107_" d="M13.246,3h-1.5a6.007,6.007,0,0,0-.733.5h1.5a6.018,6.018,0,0,1,.734-.5" transform="translate(-7.886 -2.251)" fill="#dca815"/>
    <path id="XMLID_106_" d="M7.015,45h-1.5q.174.26.368.5h1.5q-.194-.24-.369-.5" transform="translate(-3.763 -33.76)" fill="#dca815"/>
    <path id="XMLID_105_" d="M9.832,50a6.2,6.2,0,0,0,.63.5h1.5a6.145,6.145,0,0,1-.634-.5Z" transform="translate(-7.001 -37.511)" fill="#dca815"/>
  </g>
</svg>
