<svg xmlns="http://www.w3.org/2000/svg" width="15" height="13.987" viewBox="0 0 15 13.987">
  <g id="gift" transform="translate(0 -17.282)">
    <path id="Path_19" data-name="Path 19" d="M47.481,227.716H34.991a.237.237,0,0,0-.237.237V235.3a.237.237,0,0,0,.237.237h12.49a.237.237,0,0,0,.237-.237v-7.349A.237.237,0,0,0,47.481,227.716Z" transform="translate(-33.736 -204.269)" fill="#f7434c"/>
    <path id="Path_20" data-name="Path 20" d="M47.481,227.716H34.991a.237.237,0,0,0-.237.237v.947H47.718v-.947A.237.237,0,0,0,47.481,227.716Z" transform="translate(-33.736 -204.269)" fill="#db2e37"/>
    <path id="Path_21" data-name="Path 21" d="M209.275,227.716h-2.42a.237.237,0,0,0-.237.237V235.3a.237.237,0,0,0,.237.237h2.42a.237.237,0,0,0,.237-.237v-7.349A.237.237,0,0,0,209.275,227.716Z" transform="translate(-200.565 -204.269)" fill="#ffdb57"/>
    <path id="Path_22" data-name="Path 22" d="M209.275,227.716h-2.42a.237.237,0,0,0-.237.237v.942h2.894v-.942A.237.237,0,0,0,209.275,227.716Z" transform="translate(-200.565 -204.269)" fill="#f5ba3d"/>
    <path id="Path_23" data-name="Path 23" d="M286.8,19.072a4.786,4.786,0,0,0-.98-1.581.723.723,0,0,0-.543-.208c-.711.017-1.87.909-3.444,2.653a.237.237,0,0,0-.061.159v1.253a.237.237,0,0,0,.237.237h3.643a1.244,1.244,0,0,0,1.285-.726A2.5,2.5,0,0,0,286.8,19.072Z" transform="translate(-273.52 0)" fill="#ffdb57"/>
    <path id="Path_24" data-name="Path 24" d="M318.335,78.906a.235.235,0,0,0-.031-.068c-.358-.541-1.13-.338-1.716-.073a5.852,5.852,0,0,0-2.432,1.875.237.237,0,0,0,.2.366h2.7a1.347,1.347,0,0,0,1.139-.471A1.849,1.849,0,0,0,318.335,78.906Z" transform="translate(-304.916 -59.422)" fill="#ef9325"/>
    <path id="Path_25" data-name="Path 25" d="M55.391,19.936c-1.574-1.744-2.733-2.636-3.444-2.653a.722.722,0,0,0-.543.208,4.786,4.786,0,0,0-.98,1.581,2.5,2.5,0,0,0-.137,1.785,1.244,1.244,0,0,0,1.285.726h3.643a.237.237,0,0,0,.237-.237V20.094A.236.236,0,0,0,55.391,19.936Z" transform="translate(-48.707 -0.001)" fill="#ffdb57"/>
    <path id="Path_26" data-name="Path 26" d="M54.424,80.64a5.851,5.851,0,0,0-2.432-1.875c-.585-.265-1.358-.467-1.716.073a.237.237,0,0,0-.031.068,1.849,1.849,0,0,0,.145,1.627,1.347,1.347,0,0,0,1.139.471h2.7a.237.237,0,0,0,.2-.366Z" transform="translate(-48.664 -59.423)" fill="#ef9325"/>
    <path id="Path_27" data-name="Path 27" d="M216.276,97.175h-1.984a.237.237,0,0,0-.237.237V98.9a.237.237,0,0,0,.237.237h1.984a.237.237,0,0,0,.237-.237V97.412A.237.237,0,0,0,216.276,97.175Z" transform="translate(-207.784 -77.552)" fill="#f5ba3d"/>
    <path id="Path_28" data-name="Path 28" d="M14.763,147.943H.237A.237.237,0,0,0,0,148.18v2.337a.237.237,0,0,0,.237.237H14.763a.237.237,0,0,0,.237-.237V148.18A.237.237,0,0,0,14.763,147.943Z" transform="translate(0 -126.833)" fill="#f7434c"/>
    <rect id="Rectangle_23" data-name="Rectangle 23" width="3.639" height="2.811" transform="translate(5.681 21.11)" fill="#ffdb57"/>
  </g>
</svg>
