<svg xmlns="http://www.w3.org/2000/svg" width="19.991" height="13.328" viewBox="0 0 19.991 13.328">
  <g id="united-kingdom_1_" data-name="united-kingdom (1)" transform="translate(0 -85.33)">
    <rect id="Rectangle_22" data-name="Rectangle 22" width="19.991" height="13.328" transform="translate(0 85.33)" fill="#f0f0f0"/>
    <path id="Path_2" data-name="Path 2" d="M11.245,85.33h-2.5v5.414H0v2.5H8.746v5.414h2.5V93.243h8.746v-2.5H11.245Z" fill="#d80027"/>
    <g id="Group_3" data-name="Group 3" transform="translate(12.169 94.312)">
      <path id="Path_3" data-name="Path 3" d="M393.785,315.358l4.616,2.564v-2.564Z" transform="translate(-390.578 -315.358)" fill="#0052b4"/>
      <path id="Path_4" data-name="Path 4" d="M311.652,315.358l7.823,4.346v-1.229l-5.611-3.117Z" transform="translate(-311.652 -315.358)" fill="#0052b4"/>
      <path id="Path_5" data-name="Path 5" d="M317.391,348.187,311.652,345v3.189Z" transform="translate(-311.652 -343.841)" fill="#0052b4"/>
    </g>
    <path id="Path_6" data-name="Path 6" d="M311.652,315.358l7.823,4.346v-1.229l-5.611-3.117Z" transform="translate(-299.483 -221.046)" fill="#f0f0f0"/>
    <path id="Path_7" data-name="Path 7" d="M311.652,315.358l7.823,4.346v-1.229l-5.611-3.117Z" transform="translate(-299.483 -221.046)" fill="#d80027"/>
    <g id="Group_4" data-name="Group 4" transform="translate(0 94.311)">
      <path id="Path_8" data-name="Path 8" d="M3.527,315.356,0,317.316v-1.96Z" transform="translate(0 -315.356)" fill="#0052b4"/>
      <path id="Path_9" data-name="Path 9" d="M32.318,329.51V333.3H25.491Z" transform="translate(-24.496 -328.957)" fill="#0052b4"/>
    </g>
    <path id="Path_10" data-name="Path 10" d="M5.611,315.358,0,318.475V319.7H0l7.823-4.346Z" transform="translate(0 -221.046)" fill="#d80027"/>
    <g id="Group_5" data-name="Group 5" transform="translate(0 85.33)">
      <path id="Path_11" data-name="Path 11" d="M4.616,133.522,0,130.958v2.564Z" transform="translate(0 -129.176)" fill="#0052b4"/>
      <path id="Path_12" data-name="Path 12" d="M7.823,89.676,0,85.33v1.229l5.611,3.117Z" transform="translate(0 -85.33)" fill="#0052b4"/>
      <path id="Path_13" data-name="Path 13" d="M53.366,85.33,59.1,88.519V85.33Z" transform="translate(-51.282 -85.33)" fill="#0052b4"/>
    </g>
    <path id="Path_14" data-name="Path 14" d="M7.823,89.676,0,85.33v1.229l5.611,3.117Z" fill="#f0f0f0"/>
    <path id="Path_15" data-name="Path 15" d="M7.823,89.676,0,85.33v1.229l5.611,3.117Z" fill="#d80027"/>
    <g id="Group_6" data-name="Group 6" transform="translate(12.169 85.33)">
      <path id="Path_16" data-name="Path 16" d="M421.659,148.406l3.527-1.96v1.96Z" transform="translate(-417.364 -144.06)" fill="#0052b4"/>
      <path id="Path_17" data-name="Path 17" d="M311.652,89.124V85.331h6.827Z" transform="translate(-311.652 -85.331)" fill="#0052b4"/>
    </g>
    <path id="Path_18" data-name="Path 18" d="M313.864,89.676l5.611-3.117V85.33h0l-7.823,4.346Z" transform="translate(-299.483)" fill="#d80027"/>
  </g>
</svg>
